<?xml version="1.0" standalone="no"?>
<!DOCTYPE svg PUBLIC "-//W3C//DTD SVG 20010904//EN"
 "http://www.w3.org/TR/2001/REC-SVG-20010904/DTD/svg10.dtd">
<svg version="1.0" xmlns="http://www.w3.org/2000/svg"
 width="135.000000pt" height="32.000000pt" viewBox="0 0 135.000000 32.000000"
 preserveAspectRatio="xMidYMid meet">
<metadata>
Created by potrace 1.16, written by Peter Selinger 2001-2019
</metadata>
<g transform="translate(0.000000,32.000000) scale(0.100000,-0.100000)"
fill="#000000" stroke="none">
<path d="M50 230 c0 -16 7 -20 30 -20 l30 0 0 -70 c0 -63 2 -70 20 -70 18 0
20 7 20 70 0 68 1 70 25 70 24 0 25 -3 25 -59 0 -65 13 -83 57 -82 16 0 41 0
56 0 l29 1 -4 70 c-2 38 0 70 5 70 4 0 7 -31 7 -70 0 -63 2 -70 19 -70 17 0
20 8 23 47 3 44 5 48 28 48 23 0 25 -4 28 -48 3 -39 6 -47 23 -47 13 0 19 7
19 22 l0 22 15 -21 c18 -26 56 -36 90 -23 38 14 26 36 -17 32 -20 -2 -39 1
-43 7 -4 7 11 11 44 11 48 0 51 2 51 25 0 14 -9 34 -20 45 l-20 20 125 0 c118
0 125 1 125 20 0 20 -7 20 -395 20 -388 0 -395 0 -395 -20z"/>
</g>
</svg>
